<svg width="42" height="42" viewBox="0 0 42 42" fill="none" xmlns="http://www.w3.org/2000/svg">
<g id="Group 731">
<path id="Vector" d="M41 13.3147V28.6878C41 30.3394 40.0169 31.8686 38.4202 32.6957L38.3491 32.7315L38.1411 32.8399L37.9313 32.9491L37.7171 33.0584L37.4986 33.1709L37.2791 33.2843L37.0597 33.3994L36.8341 33.5161L36.6059 33.6345L36.3741 33.7546L36.1389 33.8763L35.9002 33.9997L35.6553 34.1264L35.4095 34.2532L35.1593 34.3832L34.9048 34.515L34.6414 34.6484L34.3781 34.7843L34.1148 34.9227L33.8427 35.0636L33.5653 35.207L33.2844 35.3529L25.2976 39.4909L23.5815 40.3797C22.7895 40.7868 21.9032 41 21.0026 41C20.1021 41 19.2157 40.7868 18.4237 40.3797L3.58064 32.6957C1.9831 31.8686 1 30.3394 1 28.6878V13.3147C1 13.1947 1.00527 13.0755 1.01668 12.9571C1.05742 12.4779 1.18078 12.0083 1.38183 11.5672C1.57306 11.1478 1.82928 10.758 2.14198 10.4107C2.45991 10.0554 2.83108 9.74641 3.24358 9.49359C3.35242 9.42578 3.46478 9.36213 3.58064 9.30266L4.58218 8.78655L5.90761 8.09953L7.20671 7.42668L8.48211 6.76633L9.73118 6.11933L10.9601 5.48483L12.1626 4.86118L13.3441 4.25002L14.5027 3.64971L14.9565 3.41542L15.6421 3.06107L16.7604 2.48244L17.8576 1.91381L18.4237 1.62032C19.2157 1.2132 20.1021 1 21.0026 1C21.9032 1 22.7895 1.2132 23.5815 1.62032L38.4202 9.30849C40.0169 10.1323 41 11.6614 41 13.3147Z" stroke="#08A94F" stroke-miterlimit="10"/>
<g id="Group 503">
<path id="Vector_2" d="M27.6273 17.7608C26.1365 19.4321 24.6406 21.0999 23.1394 22.764L29.413 13.6968C29.6069 14.3394 29.5676 15.0298 29.3022 15.6463C29.2732 15.7135 29.2493 15.783 29.2254 15.8524C29.2147 15.8837 29.2039 15.915 29.1926 15.9461C29.0124 16.1548 28.8332 16.3651 28.6537 16.5758C28.3152 16.973 27.9759 17.3713 27.6273 17.7608ZM24.0588 12.9178C24.1596 12.7617 24.2606 12.6053 24.3599 12.4472L29.1487 15.9205C28.97 16.1274 28.7926 16.3356 28.615 16.544C28.2768 16.9409 27.9382 17.3383 27.59 17.7274L27.5899 17.7275C26.0993 19.3988 24.6034 21.0664 23.1023 22.7305L23.1023 22.7305C21.7901 24.1893 20.4755 25.6466 19.1585 27.1022L16.9964 25.5622C17.0208 25.5186 17.0452 25.4751 17.0696 25.4316C17.1896 25.2176 17.3095 25.0037 17.4286 24.7883L21.3457 17.7079L21.3457 17.7079C21.5596 17.3201 21.7727 16.9319 21.9858 16.5438C22.4709 15.6602 22.9559 14.7768 23.4502 13.8985C23.6416 13.5641 23.8499 13.2415 24.0588 12.9178Z" fill="#D9D9D9" stroke="#00A950" stroke-width="0.1"/>
<path id="Vector_3" d="M24.3207 12.4157C24.016 12.8973 23.6921 13.379 23.4103 13.8739C22.6987 15.1382 22.0063 16.4134 21.3055 17.6838L17.3884 24.7641C17.2379 25.0362 17.0862 25.306 16.9345 25.5769C16.8141 25.4986 16.6937 25.424 16.5732 25.3361C15.9519 24.905 15.333 24.4703 14.7128 24.038C15.2692 22.162 15.8251 20.2859 16.3806 18.4099C16.7876 17.0307 17.1918 15.6508 17.5931 14.27C17.9917 12.9094 18.3843 11.5463 18.7901 10.1868C19.1633 8.93689 20.1519 8.11326 21.4464 8.0085C22.8336 7.89652 24.1629 8.90558 24.4917 10.176C24.6932 10.8837 24.6201 11.6415 24.287 12.2976C24.2701 12.3253 24.3074 12.3723 24.3207 12.4157Z" fill="#08A94F"/>
<path id="Vector_4" d="M19.1694 27.1688C20.4939 25.7014 21.8185 24.2331 23.143 22.7641C24.641 21.0975 26.1369 19.4298 27.6309 17.7609C28.1631 17.1648 28.6749 16.5567 29.1962 15.9462C29.5406 15.7126 29.8573 15.4104 30.2342 15.255C31.2445 14.8396 32.2162 14.9107 33.1531 15.5513C34.2922 16.3291 34.7594 17.9475 34.1007 19.2179C33.8891 19.6354 33.5877 20.001 33.2181 20.2884C31.4179 21.6225 29.5876 22.9158 27.7645 24.2187C26.5403 25.0953 25.3129 25.9687 24.0823 26.8389C23.1735 27.4811 22.2628 28.1233 21.3501 28.7655C21.2441 28.6812 21.1418 28.5933 21.0322 28.5138L19.1694 27.1688Z" fill="#66BC46"/>
<path id="Vector_5" d="M19.7546 30.9498C19.1922 31.9131 18.4433 32.656 17.3644 33.0064C16.3944 33.3354 15.3356 33.2831 14.4027 32.8603C13.4699 32.4374 12.7327 31.6757 12.3407 30.7294C11.7711 29.3796 11.9241 28.0731 12.7369 26.8533C12.8917 26.6445 13.0568 26.4435 13.2318 26.2512C13.3209 26.3259 13.4051 26.4066 13.4991 26.474L19.4776 30.7342C19.5728 30.8017 19.6631 30.8775 19.7546 30.9498Z" fill="#D9D9D9"/>
<path id="Vector_6" d="M19.7546 30.9497C19.6631 30.8774 19.5728 30.8016 19.4776 30.7329L13.4991 26.4727C13.4051 26.4052 13.3209 26.3246 13.2318 26.2499C13.2741 26.1439 13.3244 26.0413 13.3823 25.9429C13.8218 25.3071 14.2661 24.6761 14.7068 24.0427C15.327 24.475 15.9459 24.9097 16.5672 25.3408C16.6876 25.4239 16.808 25.4985 16.9285 25.5816L19.1633 27.1735L21.0225 28.5233C21.1321 28.6028 21.2345 28.6907 21.3404 28.775C20.8491 29.4742 20.3574 30.173 19.8654 30.8714C19.8327 30.903 19.7953 30.9294 19.7546 30.9497Z" fill="#9B9B9B"/>
</g>
</g>
</svg>
