<svg width="50" height="50" viewBox="0 0 50 50" fill="none" xmlns="http://www.w3.org/2000/svg">
<g id="Group 477">
<circle id="Ellipse 20" cx="25" cy="25" r="25" fill="#00A950"/>
<path id="Vector" d="M25.5401 10.8228C33.8507 10.8228 40.5874 17.5618 40.5874 25.8754C40.5874 34.189 33.8507 40.928 25.5401 40.928C17.2295 40.928 10.4929 34.189 10.4929 25.8754C10.4929 17.5618 17.2295 10.8228 25.5401 10.8228ZM28.053 31.8964H23.0272L20.9507 34.7519L21.7843 37.3199C22.9967 37.7171 24.2644 37.9188 25.5401 37.9175C26.8507 37.9175 28.1132 37.7068 29.2959 37.3199L30.128 34.7519L28.0515 31.8964H28.053ZM15.4494 24.1774L13.5053 25.5894L13.5023 25.8754C13.5023 28.4795 14.3284 30.8894 15.7323 32.8598H18.6063L20.5971 30.1202L19.0502 25.3485L15.4494 24.1774ZM35.6308 24.1774L32.03 25.3485L30.4831 30.1202L32.4724 32.8598H35.3464C36.8013 30.822 37.5817 28.3796 37.5779 25.8754L37.5734 25.5894L35.6308 24.1774ZM25.5401 22.1664L22.013 24.7284L23.3613 28.8859H27.7175L29.0657 24.7284L25.5401 22.1664ZM28.9875 14.3345L27.0448 15.7495V19.5382L31.0986 22.484L34.4692 21.3897L35.3028 18.8262C33.7494 16.675 31.5287 15.0963 28.9875 14.3345ZM22.0913 14.3345C19.5504 15.097 17.3318 16.6762 15.779 18.8277L16.6126 21.3897L19.9817 22.484L24.0354 19.5382V15.7495L22.0913 14.3345Z" fill="white"/>
</g>
</svg>
