<svg width="42" height="42" viewBox="0 0 42 42" fill="none" xmlns="http://www.w3.org/2000/svg">
<g id="Group 730">
<path id="Vector" d="M18.0034 15.8605C18.0034 15.4502 18.0034 15.0398 18.0034 14.6295C17.9984 14.5825 18.0071 14.5351 18.0283 14.4927C18.0496 14.4502 18.0827 14.4144 18.1238 14.3892C18.757 13.9477 19.3879 13.5025 20.0163 13.0536C20.0508 13.025 20.0931 13.0069 20.1382 13.0016C20.1832 12.9963 20.2288 13.0041 20.2692 13.024C21.7417 13.5665 23.0173 14.518 23.937 15.7599C23.9684 15.7956 23.989 15.8391 23.9967 15.8854C24.0043 15.9318 23.9987 15.9793 23.9804 16.0228C23.7524 16.6922 23.5281 17.3628 23.3075 18.0348C23.2971 18.081 23.2739 18.1237 23.2404 18.158C23.2068 18.1924 23.1642 18.2172 23.1172 18.2298C22.3031 18.481 21.4913 18.7416 20.6763 18.9904C20.6341 19.0007 20.5902 19.0027 20.5472 18.9963C20.5041 18.9899 20.4629 18.9751 20.4258 18.953C19.6534 18.417 18.8874 17.8709 18.1174 17.3319C18.0784 17.3085 18.0468 17.275 18.0263 17.2352C18.0057 17.1954 17.9969 17.1508 18.0009 17.1064C18.0066 16.6961 18.0034 16.2763 18.0034 15.8605Z" fill="white"/>
<path id="Vector_2" d="M15.9986 15.8504C15.9986 16.2604 15.9986 16.6705 15.9986 17.0805C16.0036 17.1275 15.9951 17.1749 15.9739 17.2174C15.9527 17.26 15.9198 17.296 15.8787 17.3214C15.1107 17.8562 14.3456 18.3946 13.5835 18.9367C13.5467 18.9677 13.5018 18.9883 13.4537 18.9963C13.4056 19.0043 13.3562 18.9993 13.3108 18.9819C12.4982 18.7207 11.6817 18.4697 10.8699 18.2062C10.8298 18.1899 10.7933 18.166 10.7628 18.1359C10.7323 18.1058 10.7082 18.0701 10.6921 18.0308C10.4562 17.3521 10.2282 16.671 10.0083 15.9876C9.99878 15.9494 9.99743 15.9097 10.0043 15.8709C10.0113 15.8322 10.0263 15.7952 10.0486 15.7623C10.968 14.5047 12.2578 13.5453 13.7492 13.0097C13.7855 12.9998 13.8235 12.9975 13.8608 13.0027C13.898 13.0079 13.9337 13.0207 13.9656 13.0401C14.6092 13.486 15.2504 13.9376 15.8892 14.3949C15.9183 14.4188 15.9422 14.4481 15.9594 14.481C15.9767 14.5139 15.987 14.5499 15.9898 14.5867C16.0026 15.0077 15.9986 15.4294 15.9986 15.8504Z" fill="white"/>
<path id="Vector_3" d="M22.9084 26.9979C22.5879 26.9979 22.2665 27.0052 21.9469 26.9924C21.8569 26.9869 21.7726 26.9444 21.7125 26.8743C21.1488 26.0806 20.5927 25.2805 20.0442 24.4741C20.0237 24.4401 20.0099 24.4021 20.0037 24.3625C19.9976 24.3228 19.9991 24.2823 20.0081 24.2433C20.3278 23.1938 20.6532 22.1465 20.9846 21.1013C21.0012 21.0613 21.0253 21.0252 21.0554 20.995C21.0856 20.9648 21.1212 20.9412 21.1602 20.9255C22.0587 20.6129 22.9593 20.3076 23.862 20.0097C23.9023 19.9992 23.9441 19.9972 23.9851 20.0038C24.0261 20.0104 24.0655 20.0255 24.1008 20.0482C24.7014 20.4932 25.2941 20.9502 25.893 21.398C25.9316 21.4245 25.9619 21.4622 25.9803 21.5065C25.9987 21.5507 26.0044 21.5996 25.9966 21.6471C25.9395 23.0611 25.5593 24.4403 24.8876 25.6701C24.6531 26.0977 24.3678 26.4942 24.0973 26.899C24.0703 26.928 24.0379 26.951 24.0022 26.9667C23.9664 26.9825 23.928 26.9906 23.8892 26.9906C23.5626 27.0034 23.2351 26.9979 22.9084 26.9979Z" fill="white"/>
<path id="Vector_4" d="M11.0808 26.9983C10.7543 26.9983 10.4287 27.0047 10.1032 26.9928C10.019 26.9859 9.94057 26.9452 9.88437 26.8792C8.8629 25.5391 8.22559 23.9231 8.04647 22.219C8.04796 22.1188 8.04181 22.0186 8.02809 21.9194C7.93269 21.5768 8.09023 21.3918 8.35016 21.2104C8.87527 20.8439 9.37501 20.4353 9.89225 20.0542C9.92952 20.0293 9.97119 20.0125 10.0148 20.0048C10.0584 19.9971 10.103 19.9987 10.1461 20.0094C11.0405 20.3053 11.9297 20.6149 12.8233 20.9126C12.8715 20.9255 12.9154 20.9519 12.9503 20.9891C12.9852 21.0262 13.0096 21.0726 13.0211 21.1233C13.3379 22.153 13.6573 23.1815 13.9794 24.2088C13.9984 24.257 14.0044 24.3098 13.9967 24.3613C13.989 24.4129 13.9679 24.4612 13.9356 24.501C13.3837 25.2846 12.8361 26.0733 12.2929 26.8673C12.2663 26.9115 12.2285 26.9471 12.1837 26.9701C12.1388 26.993 12.0888 27.0025 12.0391 26.9974C11.7196 26.9937 11.4002 26.9983 11.0808 26.9983Z" fill="white"/>
<path id="Vector_5" d="M41 13.3147V28.6878C41 30.3394 40.0169 31.8686 38.4202 32.6957L38.3491 32.7315L38.1411 32.8399L37.9313 32.9491L37.7171 33.0584L37.4986 33.1709L37.2791 33.2843L37.0597 33.3994L36.8341 33.5161L36.6059 33.6345L36.3741 33.7546L36.1389 33.8763L35.9002 33.9997L35.6553 34.1264L35.4095 34.2532L35.1593 34.3832L34.9048 34.515L34.6414 34.6484L34.3781 34.7843L34.1148 34.9227L33.8427 35.0636L33.5653 35.207L33.2844 35.3529L25.2976 39.4909L23.5815 40.3797C22.7895 40.7868 21.9032 41 21.0026 41C20.1021 41 19.2157 40.7868 18.4237 40.3797L3.58064 32.6957C1.9831 31.8686 1 30.3394 1 28.6878V13.3147C1 13.1947 1.00527 13.0755 1.01668 12.9571C1.05742 12.4779 1.18078 12.0083 1.38183 11.5672C1.57306 11.1478 1.82928 10.758 2.14198 10.4107C2.45991 10.0554 2.83108 9.74641 3.24358 9.49359C3.35242 9.42578 3.46478 9.36213 3.58064 9.30266L4.58218 8.78655L5.90761 8.09953L7.20671 7.42668L8.48211 6.76633L9.73118 6.11933L10.9601 5.48483L12.1626 4.86118L13.3441 4.25002L14.5027 3.64971L14.9565 3.41542L15.6421 3.06107L16.7604 2.48244L17.8576 1.91381L18.4237 1.62032C19.2157 1.2132 20.1021 1 21.0026 1C21.9032 1 22.7895 1.2132 23.5815 1.62032L38.4202 9.30849C40.0169 10.1323 41 11.6614 41 13.3147Z" stroke="#08A94F" stroke-miterlimit="10"/>
<g id="Group 511">
<circle id="Ellipse 58" cx="21" cy="21" r="12.75" fill="white" stroke="#00A950" stroke-width="0.5"/>
<path id="Vector_6" d="M20.3566 10H21.6453C21.9393 10.0343 22.2255 10.0637 22.5156 10.1049C24.6444 10.3864 26.64 11.2999 28.2446 12.7276C30.1772 14.4345 31.3865 16.5591 31.8305 19.1073C31.903 19.521 31.9441 19.9397 32 20.3554V21.6446C31.9863 21.7201 31.9706 21.7956 31.9608 21.8721C31.9089 22.2692 31.8775 22.6702 31.803 23.0623C31.3839 25.2551 30.3076 27.2684 28.7173 28.8346C27.1269 30.4007 25.0979 31.4456 22.8997 31.8304C22.4852 31.902 22.0657 31.9441 21.6492 32H20.3566C20.2939 31.9882 20.2322 31.9725 20.1694 31.9627C19.5697 31.8706 18.9591 31.8196 18.3711 31.6794C12.7263 30.3254 9.09251 24.6516 10.1979 18.9406C10.6185 16.7475 11.6956 14.7341 13.2865 13.1676C14.8773 11.6011 16.9066 10.5555 19.1052 10.1696C19.5226 10.098 19.9391 10.0529 20.3566 10ZM21.6453 15.4738C21.6453 15.9963 21.6453 16.5189 21.6453 17.0425C21.6404 17.0982 21.6511 17.1543 21.6762 17.2043C21.7013 17.2543 21.7398 17.2964 21.7874 17.3258C22.7272 18.0033 23.6622 18.6896 24.6049 19.3632C24.6502 19.391 24.7005 19.4096 24.753 19.4176C24.8056 19.4257 24.8592 19.4232 24.9107 19.4102C25.9054 19.0975 26.8962 18.77 27.8899 18.4543C27.9473 18.4385 27.9992 18.4073 28.0402 18.3641C28.0811 18.3209 28.1094 18.2673 28.1221 18.2092C28.392 17.3647 28.6657 16.5219 28.9434 15.6806C28.9657 15.626 28.9726 15.5663 28.9633 15.508C28.9539 15.4497 28.9287 15.3951 28.8905 15.3502C27.7674 13.7882 26.2094 12.5917 24.4109 11.9099C24.3615 11.8849 24.3058 11.8751 24.2509 11.8818C24.196 11.8884 24.1442 11.9111 24.1022 11.9471C23.3358 12.5145 22.5649 13.0737 21.7894 13.6247C21.7392 13.6563 21.6989 13.7014 21.6729 13.7547C21.6469 13.8081 21.6363 13.8676 21.6424 13.9266C21.6492 14.4424 21.6453 14.9551 21.6453 15.4738ZM20.3566 15.4787C20.3566 14.9492 20.3615 14.4188 20.3507 13.8894C20.3474 13.8431 20.3348 13.7979 20.3138 13.7564C20.2928 13.715 20.2637 13.6782 20.2282 13.6482C19.4521 13.073 18.671 12.505 17.8851 11.9442C17.8462 11.9198 17.8027 11.9038 17.7573 11.8972C17.7119 11.8906 17.6656 11.8936 17.6214 11.906C15.8047 12.5796 14.2335 13.7862 13.1134 15.3679C13.0864 15.4093 13.068 15.4557 13.0596 15.5045C13.0512 15.5532 13.0528 15.6032 13.0644 15.6512C13.333 16.5114 13.6106 17.368 13.8974 18.221C13.9171 18.2703 13.9463 18.3152 13.9835 18.3531C14.0207 18.391 14.0651 18.421 14.114 18.4416C15.1028 18.7729 16.0975 19.0886 17.0873 19.4171C17.1426 19.439 17.2028 19.4452 17.2614 19.4352C17.32 19.4252 17.3747 19.3992 17.4196 19.3602C18.3486 18.6785 19.2806 18.0013 20.2155 17.3288C20.2655 17.2967 20.3056 17.2515 20.3314 17.198C20.3572 17.1445 20.3676 17.0849 20.3615 17.0258C20.3527 16.5101 20.3566 15.9944 20.3566 15.4787ZM27.248 27.1547C27.6125 27.1547 27.9781 27.1606 28.3426 27.1498C28.3859 27.1498 28.4288 27.1411 28.4687 27.1243C28.5086 27.1074 28.5447 27.0828 28.5749 27.0517C28.8797 26.6194 29.1982 26.1939 29.4569 25.736C30.207 24.4186 30.6314 22.9408 30.6946 21.426C30.7029 21.3743 30.6956 21.3213 30.6738 21.2736C30.652 21.226 30.6167 21.1859 30.5721 21.1583C29.9038 20.6789 29.2423 20.1897 28.572 19.7132C28.5325 19.6889 28.4886 19.6728 28.4428 19.6657C28.3971 19.6586 28.3503 19.6608 28.3054 19.672C27.298 19.9916 26.2928 20.3184 25.2899 20.6524C25.2464 20.6692 25.2067 20.6945 25.173 20.7269C25.1394 20.7592 25.1125 20.7979 25.0939 20.8407C24.7235 21.959 24.3602 23.0803 24.0042 24.2046C23.994 24.2463 23.9924 24.2897 23.9993 24.3322C24.0062 24.3746 24.0215 24.4152 24.0444 24.4516C24.6598 25.3124 25.2805 26.169 25.9064 27.0213C25.9735 27.0964 26.0675 27.1419 26.168 27.1478C26.5316 27.1625 26.8903 27.1547 27.248 27.1547ZM14.7461 27.1547C15.1038 27.1547 15.4615 27.1498 15.8241 27.1547C15.8797 27.1602 15.9358 27.1501 15.986 27.1255C16.0362 27.1009 16.0786 27.0628 16.1083 27.0155C16.7166 26.1658 17.3301 25.3206 17.9488 24.4801C17.9849 24.4375 18.0085 24.3857 18.0172 24.3306C18.0258 24.2754 18.0191 24.2189 17.9978 24.1673C17.6365 23.0679 17.2788 21.9672 16.9247 20.8652C16.9119 20.8109 16.8845 20.7612 16.8454 20.7215C16.8064 20.6817 16.7572 20.6534 16.7032 20.6397C15.7026 20.321 14.7069 19.9897 13.7054 19.673C13.6572 19.6615 13.6072 19.6599 13.5584 19.6681C13.5096 19.6764 13.4629 19.6944 13.4212 19.721C12.842 20.1289 12.2824 20.5652 11.6944 20.9583C11.4004 21.1544 11.2269 21.3505 11.3338 21.7172C11.3491 21.8233 11.356 21.9305 11.3543 22.0378C11.5549 23.8616 12.2685 25.591 13.4123 27.0253C13.4753 27.0959 13.5631 27.1395 13.6573 27.1468C14.016 27.1616 14.3806 27.1547 14.7461 27.1547ZM20.9936 25.0958C20.4144 25.0958 19.8353 25.0899 19.2561 25.1017C19.2061 25.1053 19.1574 25.1188 19.1126 25.1413C19.0679 25.1639 19.0281 25.195 18.9954 25.233C18.3662 26.0827 17.7456 26.9393 17.1334 27.8028C17.1104 27.8391 17.0949 27.8797 17.0879 27.9221C17.0808 27.9646 17.0823 28.008 17.0922 28.0498C17.2948 28.7034 17.5065 29.3554 17.7273 30.0058C17.7445 30.0488 17.7702 30.0879 17.8028 30.1208C17.8355 30.1536 17.8745 30.1796 17.9174 30.197C19.9165 30.8798 22.0855 30.8798 24.0845 30.197C24.1303 30.1781 24.1718 30.1502 24.2067 30.115C24.2415 30.0798 24.2689 30.038 24.2874 29.9921C24.505 29.3567 24.7121 28.7182 24.9087 28.0763C24.9212 28.0282 24.924 27.978 24.9167 27.9289C24.9095 27.8797 24.8924 27.8325 24.8666 27.79C24.257 26.9341 23.6347 26.086 23.0212 25.233C22.991 25.1858 22.9485 25.1477 22.8982 25.1229C22.848 25.098 22.7919 25.0873 22.7361 25.0919C22.153 25.0968 21.5728 25.0938 20.9926 25.0938L20.9936 25.0958Z" fill="black" stroke="white" stroke-width="1.5"/>
<path id="Vector_7" d="M20.9954 25.001C21.5866 25.001 22.1788 25.001 22.77 25.001C22.827 24.9969 22.8843 25.0064 22.9355 25.0286C22.9868 25.0507 23.0302 25.0846 23.0611 25.1266C23.6873 25.8857 24.3225 26.6404 24.9448 27.4022C24.9712 27.4399 24.9886 27.482 24.996 27.5257C25.0034 27.5695 25.0006 27.6141 24.9878 27.6569C24.7877 28.2282 24.5763 28.7965 24.3536 29.3619C24.3347 29.4028 24.3067 29.44 24.2711 29.4713C24.2356 29.5026 24.1932 29.5274 24.1465 29.5442C22.1059 30.1519 19.8918 30.1519 17.8512 29.5442C17.8074 29.5287 17.7676 29.5057 17.7343 29.4764C17.701 29.4472 17.6747 29.4124 17.6572 29.3741C17.4324 28.7965 17.2163 28.2162 17.0089 27.6334C16.9988 27.5961 16.9973 27.5575 17.0045 27.5197C17.0117 27.482 17.0275 27.4459 17.051 27.4135C17.6805 26.6474 18.3141 25.8851 18.9516 25.1266C18.985 25.0928 19.0256 25.0651 19.0713 25.045C19.117 25.0249 19.1667 25.0129 19.2177 25.0097C19.8139 24.9957 20.4052 25.001 20.9954 25.001Z" fill="white"/>
</g>
</g>
</svg>
