<svg width="51" height="50" viewBox="0 0 51 50" fill="none" xmlns="http://www.w3.org/2000/svg">
<g id="Group 479">
<path id="Vector" d="M18.3363 40.625C19.0916 40.8334 20.7551 41.25 21.7921 40.8334C21.5249 41.6377 21.8131 43.0181 22.1248 43.7873C22.0073 43.7426 21.896 43.6836 21.7935 43.6117C21.1023 42.9409 20.2276 44.4312 19.5471 43.7498C18.7535 44.0412 18.3846 40.7437 18.3363 40.625Z" fill="#08A94F"/>
<g id="Group 478">
<path id="Vector_2" d="M27.4359 50H23.5755C23.5142 49.9576 23.4462 49.9255 23.3742 49.9052C20.0515 49.6184 16.818 48.6932 13.856 47.1816C4.25407 42.3314 -1.25947 31.5529 0.530869 21.0554C1.49284 15.4203 4.01713 10.5579 8.33355 6.74029C15.5822 0.330788 24.0102 -1.5464 33.2897 1.27553C40.5615 3.48286 45.6974 8.26978 48.8113 15.12C49.7582 17.1787 50.3713 19.3712 50.6284 21.6173C50.4769 21.4927 50.3184 21.3785 50.1795 21.2416C47.2294 18.3359 44.2793 15.4303 41.3293 12.5246C41.1587 12.3836 40.9757 12.2578 40.7824 12.1488H40.7949L40.6434 11.9434L39.726 10.9512C37.9642 9.28125 35.903 8.83523 33.5729 9.49198C32.0747 9.91343 31.0575 10.9881 30.0368 12.0523L28.1378 13.9084C21.0405 17.2331 13.9421 20.5549 6.84249 23.8738C6.52809 24.013 6.24944 24.22 6.02712 24.4795C5.8048 24.7391 5.6445 25.0446 5.55808 25.3735C5.1341 26.7871 5.62043 27.9109 6.74808 28.81L6.87634 28.9171H6.84962V28.8908L7.06161 29.0137V28.9997C7.09683 29.1175 7.15096 29.2289 7.22194 29.3298C7.91788 30.0322 8.62155 30.7264 9.33294 31.4125C9.42302 31.4752 9.52209 31.5243 9.62687 31.5582L9.76939 31.7549L10.8169 32.7962L11.0146 32.9262C11.0954 33.0777 11.1908 33.2212 11.2996 33.3546C11.7753 33.8393 12.2598 34.3187 12.7515 34.7875C13.065 35.0861 13.4017 35.3618 13.7277 35.648L13.701 35.6585V35.6322L13.8115 35.7621L14.1802 36.1572L14.7806 36.6963L14.9872 36.8333C15.0443 36.9622 15.1173 37.0837 15.2045 37.1951C15.8613 37.8553 16.5246 38.5091 17.1944 39.1565C17.3075 39.2429 17.43 39.3165 17.5596 39.376L17.6754 39.5727C18.0317 39.9239 18.388 40.2751 18.7443 40.6263L18.9349 40.737C18.9839 40.8526 19.0473 40.9617 19.1237 41.0618C19.8042 41.7432 20.4901 42.4192 21.1813 43.09C21.2838 43.162 21.3951 43.221 21.5126 43.2656L21.6409 43.4676L22.699 44.4896L22.9057 44.6353V44.6195C22.9945 44.7859 23.1001 44.943 23.221 45.0884C24.7049 46.5617 26.1871 48.035 27.6942 49.4785C27.883 49.6541 28.2001 49.712 28.4566 49.8297L27.4359 50Z" fill="#08A94F"/>
<path id="Vector_3" d="M40.7826 12.146C40.9759 12.255 41.1589 12.3807 41.3295 12.5218C44.2831 15.4251 47.2332 18.3307 50.1796 21.2387C50.3186 21.3757 50.4771 21.4898 50.6268 21.6145L50.894 23.0702V27.0705C50.8526 27.1309 50.8207 27.1972 50.7996 27.2671C50.6856 28.0855 50.6214 28.9143 50.4611 29.7256C49.1143 36.2369 45.7332 41.4822 40.2588 45.3718C36.7896 47.8663 32.7095 49.4057 28.4372 49.8321C28.1807 49.7179 27.8636 49.6653 27.6748 49.4809C26.1677 48.0304 24.6855 46.5571 23.2016 45.0908C23.0807 44.9454 22.9751 44.7883 22.8863 44.622L23.353 44.7642C24.853 45.219 26.157 44.6694 26.8197 43.2962C30.1629 36.361 33.5054 29.4265 36.8474 22.4925L38.7215 20.6311C39.1508 20.2079 39.5961 19.797 40.0077 19.3562C40.9935 18.32 41.5634 16.9656 41.6109 15.5457C41.6697 14.3182 41.3366 13.2101 40.7826 12.146Z" fill="#32B44A"/>
<path id="Vector_4" d="M36.8472 22.4851C33.5052 29.4202 30.1627 36.3548 26.8195 43.2888C26.1568 44.662 24.8599 45.2116 23.3528 44.7568L22.8861 44.6146V44.6304L22.6794 44.4846L21.6213 43.4626L21.493 43.2607C21.1813 42.495 21.0672 41.7154 21.3345 40.9111C25.8154 34.1153 30.2945 27.3171 34.7718 20.5166C35.463 21.1734 36.1548 21.8295 36.8472 22.4851Z" fill="#C6C5CB"/>
<path id="Vector_5" d="M6.74818 28.8118C5.62053 27.9127 5.1342 26.7889 5.55818 25.3753C5.64461 25.0464 5.8049 24.7409 6.02722 24.4813C6.24954 24.2217 6.5282 24.0147 6.8426 23.8756C13.947 20.5649 21.0454 17.2431 28.1379 13.9102L30.1366 15.9243L23.5542 20.1388L9.51653 29.1314C8.7065 29.3767 7.83399 29.3269 7.05815 28.9909V29.005L6.84616 28.882V28.9189H6.87288L6.74818 28.8118Z" fill="white"/>
<path id="Vector_6" opacity="0.39" d="M34.772 20.5161C30.2946 27.3178 25.8185 34.1183 21.3435 40.9176C20.5205 41.0616 19.7064 41.102 18.9243 40.7297L18.7337 40.6191C18.3774 40.2679 18.0211 39.9167 17.6648 39.5655L17.5491 39.3688C17.1928 38.5944 17.1928 37.7884 17.3513 36.9771C17.4582 36.877 17.574 36.7839 17.6702 36.6751C22.9159 30.8392 28.1611 25.0033 33.4056 19.1675L34.772 20.5161Z" fill="#DAD9D9"/>
<path id="Vector_7" opacity="0.39" d="M9.51646 29.1379L23.5542 20.1383L30.1366 15.9238L31.5136 17.2812L13.4712 33.031C12.6322 33.3471 11.8145 33.2312 11.0075 32.9187L10.8098 32.7887L9.7623 31.7474L9.61978 31.5507C9.3205 30.7623 9.17264 29.9597 9.51646 29.1379Z" fill="#DAD9D9"/>
<path id="Vector_8" d="M33.4001 19.1603C28.1556 24.9962 22.9105 30.832 17.6647 36.6679C17.5685 36.7768 17.4527 36.8699 17.3459 36.9699C16.5335 37.2404 15.7426 37.1157 14.9712 36.8189L14.7646 36.682L14.1606 36.1499C14.2996 36.0375 14.4475 35.9339 14.5739 35.8092C20.4052 30.0647 26.2346 24.3184 32.0623 18.5703C32.1888 18.4456 32.301 18.3034 32.4186 18.1699L32.5718 18.2911L33.4001 19.1603Z" fill="#C7C6CC"/>
<path id="Vector_9" d="M32.4241 18.1702C32.3048 18.3037 32.1925 18.4459 32.0678 18.5706C26.239 24.3186 20.4095 30.0649 14.5795 35.8095C14.453 35.9342 14.3052 36.0378 14.1662 36.1502L13.8046 35.755L13.6941 35.6251V35.6514L13.7209 35.6409C13.5033 35.2449 13.3691 34.8096 13.3262 34.3612C13.2834 33.9129 13.3328 33.4606 13.4715 33.0315L31.5138 17.2852L32.4241 18.1702Z" fill="#FDFEFF"/>
<path id="Vector_10" d="M40.7824 12.1455C41.3364 13.2096 41.6731 14.3177 41.6107 15.5381C41.5632 16.958 40.9933 18.3124 40.0075 19.3487C39.5959 19.7895 39.1506 20.2004 38.7213 20.6236C37.3555 19.2703 35.9897 17.9175 34.624 16.5654C34.5477 16.509 34.4637 16.4635 34.3746 16.4302L34.3389 16.2827C34.4317 16.2166 34.5204 16.1451 34.6044 16.0684C36.2445 14.4552 37.884 12.8397 39.5229 11.2218C39.5971 11.1368 39.6655 11.047 39.7278 10.9531L40.6452 11.9453L40.7966 12.1507L40.7824 12.1455Z" fill="#C7C5CB"/>
<path id="Vector_11" d="M39.7262 10.9535C39.664 11.0474 39.5955 11.1372 39.5213 11.2222C37.8848 12.8401 36.2453 14.4557 34.6028 16.0689C34.5186 16.1459 34.4293 16.2175 34.3356 16.2831L30.037 12.0616C31.0577 10.9974 32.0749 9.92276 33.5731 9.50131C35.9033 8.83754 37.9644 9.28357 39.7262 10.9535Z" fill="white"/>
<path id="Vector_12" d="M30.0371 12.0605L34.3357 16.275C34.3499 16.3242 34.3606 16.3733 34.3731 16.4225C34.0168 16.7632 33.6302 17.0916 33.2811 17.448C33.0263 17.7079 32.8108 18.0029 32.5774 18.2839L32.4242 18.1627L31.5139 17.2847L30.1368 15.9238L28.1381 13.9061L30.0371 12.0605Z" fill="#DF2B29"/>
<path id="Vector_13" d="M13.471 33.0313C13.3324 33.4605 13.283 33.9127 13.3258 34.3611C13.3687 34.8095 13.5029 35.2447 13.7204 35.6408C13.3944 35.3546 13.0578 35.0789 12.7442 34.7803C12.2525 34.3115 11.768 33.8321 11.2924 33.3474C11.1835 33.214 11.0881 33.0705 11.0073 32.9189C11.8143 33.2315 12.632 33.3474 13.471 33.0313Z" fill="#08A94F"/>
<path id="Vector_14" d="M9.51703 29.1385C9.18034 29.9603 9.32108 30.7628 9.62392 31.5566C9.51914 31.5227 9.42007 31.4735 9.32998 31.4108C8.61741 30.7225 7.91374 30.0282 7.21898 29.3282C7.14801 29.2273 7.09388 29.1158 7.05865 28.998C7.8345 29.334 8.707 29.3839 9.51703 29.1385Z" fill="#08A94F"/>
<path id="Vector_15" d="M14.9659 36.8213C15.7408 37.1181 16.5282 37.2427 17.3405 36.9723C17.1749 37.7889 17.1784 38.5896 17.5383 39.364C17.4086 39.3045 17.2861 39.2308 17.1731 39.1445C16.5033 38.496 15.84 37.8421 15.1832 37.183C15.096 37.0717 15.023 36.9502 14.9659 36.8213Z" fill="#08A94F"/>
<path id="Vector_16" d="M32.5771 18.2921C32.8105 18.0111 33.0261 17.7161 33.2808 17.4562C33.6371 17.105 34.0076 16.7713 34.3728 16.4307C34.462 16.464 34.5459 16.5095 34.6222 16.5659C35.9904 17.9157 37.3561 19.2684 38.7195 20.6241L36.8455 22.4854C36.1519 21.8299 35.4601 21.1737 34.7701 20.5169L33.4002 19.1613L32.5771 18.2921Z" fill="#C12126"/>
</g>
</g>
</svg>
