<svg width="21" height="24" viewBox="0 0 21 24" fill="none" xmlns="http://www.w3.org/2000/svg">
<g id="Group">
<path id="Vector" d="M17.0057 11.4762V4.92752C17.0057 4.84483 16.9902 4.76294 16.96 4.68653C16.9298 4.61013 16.8855 4.54072 16.8296 4.48229L13.6805 1.18438C13.5681 1.06647 13.4155 1.00015 13.2564 1H1.60021C1.44103 1 1.28836 1.06622 1.1758 1.1841C1.06324 1.30198 1 1.46186 1 1.62857V21.3238C1 21.4905 1.06324 21.6504 1.1758 21.7683C1.28836 21.8862 1.44103 21.9524 1.60021 21.9524H10.0032M5.00142 9.38095H13.0043M5.00142 5.19048H9.00284M5.00142 13.5714H8.00249" stroke="#00A950" stroke-width="1.5" stroke-linecap="round" stroke-linejoin="round"/>
<path id="Vector_2" d="M13.0043 1V4.56191C13.0043 4.72861 13.0675 4.88849 13.1801 5.00637C13.2926 5.12425 13.4453 5.19048 13.6045 5.19048H17.0057M16.9977 14.75L19.5546 15.4299C19.8207 15.5011 20.0078 15.7547 19.9998 16.0417C19.8277 22.0739 16.5055 23 16.5055 23C16.5055 23 13.1833 22.0739 13.0113 16.0417C13.0082 15.902 13.0506 15.7653 13.1315 15.6541C13.2124 15.5429 13.327 15.4639 13.4564 15.4299L16.0133 14.75C16.3365 14.6641 16.6746 14.6641 16.9977 14.75Z" stroke="#00A950" stroke-width="1.5" stroke-linecap="round" stroke-linejoin="round"/>
</g>
</svg>
