<svg width="23" height="23" viewBox="0 0 23 23" fill="none" xmlns="http://www.w3.org/2000/svg">
<g id="Group 490">
<path id="Vector" d="M22.9999 19.7829C22.9875 20.2261 22.8863 20.6623 22.7022 21.0655C22.5182 21.4688 22.2551 21.8309 21.9286 22.1304C21.6021 22.4298 21.2188 22.6605 20.8016 22.8087C20.3843 22.9569 19.9416 23.0196 19.4997 22.9931C16.7392 23.0086 13.9787 22.9931 11.2182 22.9931C11.0482 22.9931 10.8851 22.9255 10.7649 22.8051C10.6447 22.6847 10.5771 22.5214 10.5771 22.3511C10.5771 22.1808 10.6447 22.0175 10.7649 21.8971C10.8851 21.7767 11.0482 21.709 11.2182 21.709C14.039 21.709 16.8597 21.7501 19.6804 21.709C21.0998 21.6885 21.7178 20.6201 21.7178 19.3488V3.34484C21.7277 2.94069 21.6142 2.54314 21.3924 2.20535C21.1706 1.86756 20.8511 1.60565 20.4767 1.45462C20.034 1.33363 19.5734 1.29233 19.1163 1.33263H11.2182C11.0482 1.33263 10.8851 1.26498 10.7649 1.14458C10.6447 1.02417 10.5771 0.860855 10.5771 0.690571C10.5771 0.520286 10.6447 0.356976 10.7649 0.236566C10.8851 0.116157 11.0482 0.0485112 11.2182 0.0485112C14.0697 0.0485112 16.943 -0.060639 19.792 0.0485112C20.2283 0.0595618 20.658 0.157402 21.0562 0.336338C21.4544 0.515274 21.813 0.771734 22.1113 1.09079C22.4096 1.40985 22.6415 1.78514 22.7937 2.19481C22.9458 2.60449 23.015 3.04038 22.9974 3.47711L22.9999 19.7829Z" fill="#0FA958"/>
<path id="Vector_2" d="M0.187817 11.0703C0.0794904 11.1755 0.0160727 11.3187 0.0108795 11.4697C0.0108795 11.4889 0.0108794 11.5056 0.0031865 11.5249C-0.00450642 11.5442 0.00318656 11.5596 0.0108795 11.5775C0.0160098 11.729 0.0794113 11.8725 0.187817 11.9782L4.89204 16.6896C5.01295 16.8066 5.17489 16.8713 5.34298 16.8698C5.51107 16.8684 5.67186 16.8008 5.79072 16.6818C5.90958 16.5628 5.977 16.4017 5.97846 16.2334C5.97992 16.065 5.9153 15.9028 5.79853 15.7818L2.18926 12.1657H15.9622C16.1322 12.1657 16.2953 12.098 16.4155 11.9776C16.5357 11.8572 16.6032 11.6939 16.6032 11.5236C16.6032 11.3533 16.5357 11.19 16.4155 11.0696C16.2953 10.9492 16.1322 10.8816 15.9622 10.8816H2.18926L5.79853 7.26547C5.9153 7.14438 5.97992 6.98219 5.97846 6.81385C5.977 6.6455 5.90958 6.48447 5.79072 6.36542C5.67186 6.24638 5.51107 6.17886 5.34298 6.17739C5.17489 6.17593 5.01295 6.24065 4.89204 6.3576L0.187817 11.0703Z" fill="#0FA958"/>
</g>
</svg>
