<svg width="20" height="22" viewBox="0 0 20 22" fill="none" xmlns="http://www.w3.org/2000/svg">
<path d="M2.7125 2.69677H2.88805L2.94765 2.53165C3.188 1.8658 3.63409 1.2882 4.22546 0.879164C4.81691 0.470078 5.52426 0.25 6.25 0.25C6.97574 0.25 7.68309 0.470078 8.27454 0.879164C8.86591 1.2882 9.312 1.8658 9.55235 2.53165L9.61195 2.69677H9.7875H18.75C19.017 2.69677 19.272 2.80052 19.4591 2.98343C19.6461 3.16616 19.75 3.41276 19.75 3.66866C19.75 3.92457 19.6461 4.17117 19.4591 4.35389C19.272 4.53681 19.017 4.64055 18.75 4.64055H9.7875H9.61195L9.55235 4.80567C9.312 5.47153 8.86591 6.04913 8.27454 6.45816C7.68309 6.86725 6.97574 7.08733 6.25 7.08733C5.52426 7.08733 4.81691 6.86725 4.22546 6.45816C3.63409 6.04913 3.188 5.47153 2.94765 4.80567L2.88805 4.64055H2.7125H1.25C0.982972 4.64055 0.727994 4.53681 0.540872 4.35389L0.370063 4.52863L0.540872 4.35389C0.353943 4.17117 0.25 3.92457 0.25 3.66866C0.25 3.41276 0.353943 3.16616 0.540872 2.98343C0.727994 2.80052 0.982972 2.69677 1.25 2.69677H2.7125ZM10.2125 10.0281H10.388L10.4476 9.86299C10.688 9.19713 11.1341 8.61954 11.7255 8.2105C12.3169 7.80141 13.0243 7.58134 13.75 7.58134C14.4757 7.58134 15.1831 7.80141 15.7745 8.2105C16.3659 8.61954 16.812 9.19713 17.0524 9.86299L17.112 10.0281H17.2875H18.75C19.017 10.0281 19.272 10.1319 19.4591 10.3148C19.6461 10.4975 19.75 10.7441 19.75 11C19.75 11.2559 19.6461 11.5025 19.4591 11.6852C19.272 11.8681 19.017 11.9719 18.75 11.9719H17.2875H17.112L17.0524 12.137C16.812 12.8029 16.3659 13.3805 15.7745 13.7895C15.1831 14.1986 14.4757 14.4187 13.75 14.4187C13.0243 14.4187 12.3169 14.1986 11.7255 13.7895C11.1341 13.3805 10.688 12.8029 10.4476 12.137L10.388 11.9719H10.2125H1.25C0.982973 11.9719 0.727995 11.8681 0.540872 11.6852C0.353942 11.5025 0.25 11.2559 0.25 11C0.25 10.7441 0.353943 10.4975 0.540872 10.3148C0.727994 10.1319 0.982972 10.0281 1.25 10.0281H10.2125ZM2.7125 17.3594H2.88805L2.94765 17.1943C3.188 16.5285 3.63409 15.9509 4.22546 15.5418C4.81691 15.1328 5.52426 14.9127 6.25 14.9127C6.97574 14.9127 7.68309 15.1328 8.27454 15.5418C8.86591 15.9509 9.312 16.5285 9.55235 17.1943L9.61195 17.3594H9.7875H18.75C19.017 17.3594 19.272 17.4632 19.4591 17.6461C19.6461 17.8288 19.75 18.0754 19.75 18.3313C19.75 18.5872 19.6461 18.8338 19.4591 19.0166C19.272 19.1995 19.017 19.3032 18.75 19.3032H9.7875H9.61195L9.55235 19.4683C9.312 20.1342 8.86591 20.7118 8.27454 21.1208C7.68309 21.5299 6.97574 21.75 6.25 21.75C5.52426 21.75 4.81691 21.5299 4.22546 21.1208C3.63409 20.7118 3.188 20.1342 2.94765 19.4683L2.88805 19.3032H2.7125H1.25C0.982971 19.3032 0.727994 19.1995 0.540872 19.0166C0.353943 18.8338 0.25 18.5872 0.25 18.3313C0.25 18.0754 0.353943 17.8288 0.540872 17.6461C0.727994 17.4632 0.982972 17.3594 1.25 17.3594H2.7125ZM6.25 2.19677C5.85399 2.19677 5.47308 2.3505 5.19136 2.62588C4.90945 2.90145 4.75 3.27643 4.75 3.66866C4.75 4.06089 4.90945 4.43587 5.19136 4.71144C5.47308 4.98683 5.85399 5.14055 6.25 5.14055C6.64601 5.14055 7.02692 4.98683 7.30864 4.71144C7.59055 4.43587 7.75 4.06089 7.75 3.66866C7.75 3.27643 7.59055 2.90145 7.30864 2.62588C7.02692 2.3505 6.64601 2.19677 6.25 2.19677ZM13.75 9.52811C13.354 9.52811 12.9731 9.68183 12.6914 9.95722C12.4095 10.2328 12.25 10.6078 12.25 11C12.25 11.3922 12.4095 11.7672 12.6914 12.0428C12.9731 12.3182 13.354 12.4719 13.75 12.4719C14.146 12.4719 14.5269 12.3182 14.8086 12.0428C15.0905 11.7672 15.25 11.3922 15.25 11C15.25 10.6078 15.0905 10.2328 14.8086 9.95722C14.5269 9.68183 14.146 9.52811 13.75 9.52811ZM6.25 16.8594C5.85399 16.8594 5.47308 17.0132 5.19136 17.2886C4.90945 17.5641 4.75 17.9391 4.75 18.3313C4.75 18.7236 4.90945 19.0985 5.19136 19.3741C5.47308 19.6495 5.85399 19.8032 6.25 19.8032C6.64601 19.8032 7.02692 19.6495 7.30864 19.3741C7.59055 19.0985 7.75 18.7236 7.75 18.3313C7.75 17.9391 7.59055 17.5641 7.30864 17.2886C7.02692 17.0132 6.64601 16.8594 6.25 16.8594Z" fill="#20B466" stroke="#DDDDDD" stroke-width="0.5"/>
</svg>
