<svg width="60" height="60" viewBox="0 0 60 60" fill="none" xmlns="http://www.w3.org/2000/svg">
<rect width="60" height="60" fill="#7C7C7C"/>
<g id="home">
<path d="M-1504 -396C-1504 -397.105 -1503.1 -398 -1502 -398H1882C1883.1 -398 1884 -397.105 1884 -396V988C1884 989.105 1883.1 990 1882 990H-1502C-1503.1 990 -1504 989.105 -1504 988V-396Z" fill="#404040"/>
<g id="Home" clip-path="url(#clip0_613_330)">
<rect width="428" height="926" transform="translate(-347 -117)" fill="white"/>
<path id="Arrow 2" d="M241.812 19.7228C242.763 18.7223 242.723 17.1399 241.723 16.1884L225.418 0.683125C224.418 -0.268354 222.835 -0.228596 221.884 0.77193C220.932 1.77246 220.972 3.35487 221.973 4.30635L236.466 18.0888L222.683 32.5817C221.732 33.5822 221.771 35.1646 222.772 36.1161C223.772 37.0676 225.355 37.0278 226.306 36.0273L241.812 19.7228ZM41.0628 25.4992L240.063 20.4992L239.937 15.5008L40.9372 20.5008L41.0628 25.4992Z" fill="#00A950"/>
<rect id="Rectangle 158" x="-347" y="-117" width="428" height="232" fill="white"/>
<g id="Group 487">
<rect id="Rectangle 31" width="60" height="60" rx="20" fill="#DDDDDD"/>
<path id="Vector" d="M23.7125 21.6968H23.888L23.9476 21.5317C24.188 20.8658 24.6341 20.2882 25.2255 19.8792C25.8169 19.4701 26.5243 19.25 27.25 19.25C27.9757 19.25 28.6831 19.4701 29.2745 19.8792C29.8659 20.2882 30.312 20.8658 30.5524 21.5317L30.612 21.6968H30.7875H39.75C40.017 21.6968 40.272 21.8005 40.4591 21.9834C40.6461 22.1662 40.75 22.4128 40.75 22.6687C40.75 22.9246 40.6461 23.1712 40.4591 23.3539C40.272 23.5368 40.017 23.6406 39.75 23.6406H30.7875H30.612L30.5524 23.8057C30.312 24.4715 29.8659 25.0491 29.2745 25.4582C28.6831 25.8672 27.9757 26.0873 27.25 26.0873C26.5243 26.0873 25.8169 25.8672 25.2255 25.4582C24.6341 25.0491 24.188 24.4715 23.9476 23.8057L23.888 23.6406H23.7125H22.25C21.983 23.6406 21.728 23.5368 21.5409 23.3539L21.3701 23.5286L21.5409 23.3539C21.3539 23.1712 21.25 22.9246 21.25 22.6687C21.25 22.4128 21.3539 22.1662 21.5409 21.9834C21.728 21.8005 21.983 21.6968 22.25 21.6968H23.7125ZM31.2125 29.0281H31.388L31.4476 28.863C31.688 28.1971 32.1341 27.6195 32.7255 27.2105C33.3169 26.8014 34.0243 26.5813 34.75 26.5813C35.4757 26.5813 36.1831 26.8014 36.7745 27.2105C37.3659 27.6195 37.812 28.1971 38.0524 28.863L38.112 29.0281H38.2875H39.75C40.017 29.0281 40.272 29.1319 40.4591 29.3148C40.6461 29.4975 40.75 29.7441 40.75 30C40.75 30.2559 40.6461 30.5025 40.4591 30.6852C40.272 30.8681 40.017 30.9719 39.75 30.9719H38.2875H38.112L38.0524 31.137C37.812 31.8029 37.3659 32.3805 36.7745 32.7895C36.1831 33.1986 35.4757 33.4187 34.75 33.4187C34.0243 33.4187 33.3169 33.1986 32.7255 32.7895C32.1341 32.3805 31.688 31.8029 31.4476 31.137L31.388 30.9719H31.2125H22.25C21.983 30.9719 21.728 30.8681 21.5409 30.6852C21.3539 30.5025 21.25 30.2559 21.25 30C21.25 29.7441 21.3539 29.4975 21.5409 29.3148C21.728 29.1319 21.983 29.0281 22.25 29.0281H31.2125ZM23.7125 36.3594H23.888L23.9476 36.1943C24.188 35.5285 24.6341 34.9509 25.2255 34.5418C25.8169 34.1328 26.5243 33.9127 27.25 33.9127C27.9757 33.9127 28.6831 34.1328 29.2745 34.5418C29.8659 34.9509 30.312 35.5285 30.5524 36.1943L30.612 36.3594H30.7875H39.75C40.017 36.3594 40.272 36.4632 40.4591 36.6461C40.6461 36.8288 40.75 37.0754 40.75 37.3313C40.75 37.5872 40.6461 37.8338 40.4591 38.0166C40.272 38.1995 40.017 38.3032 39.75 38.3032H30.7875H30.612L30.5524 38.4683C30.312 39.1342 29.8659 39.7118 29.2745 40.1208C28.6831 40.5299 27.9757 40.75 27.25 40.75C26.5243 40.75 25.8169 40.5299 25.2255 40.1208C24.6341 39.7118 24.188 39.1342 23.9476 38.4683L23.888 38.3032H23.7125H22.25C21.983 38.3032 21.728 38.1995 21.5409 38.0166C21.3539 37.8338 21.25 37.5872 21.25 37.3313C21.25 37.0754 21.3539 36.8288 21.5409 36.6461C21.728 36.4632 21.983 36.3594 22.25 36.3594H23.7125ZM27.25 21.1968C26.854 21.1968 26.4731 21.3505 26.1914 21.6259C25.9095 21.9015 25.75 22.2764 25.75 22.6687C25.75 23.0609 25.9095 23.4359 26.1914 23.7114C26.4731 23.9868 26.854 24.1406 27.25 24.1406C27.646 24.1406 28.0269 23.9868 28.3086 23.7114C28.5905 23.4359 28.75 23.0609 28.75 22.6687C28.75 22.2764 28.5905 21.9015 28.3086 21.6259C28.0269 21.3505 27.646 21.1968 27.25 21.1968ZM34.75 28.5281C34.354 28.5281 33.9731 28.6818 33.6914 28.9572C33.4095 29.2328 33.25 29.6078 33.25 30C33.25 30.3922 33.4095 30.7672 33.6914 31.0428C33.9731 31.3182 34.354 31.4719 34.75 31.4719C35.146 31.4719 35.5269 31.3182 35.8086 31.0428C36.0905 30.7672 36.25 30.3922 36.25 30C36.25 29.6078 36.0905 29.2328 35.8086 28.9572C35.5269 28.6818 35.146 28.5281 34.75 28.5281ZM27.25 35.8594C26.854 35.8594 26.4731 36.0132 26.1914 36.2886C25.9094 36.5641 25.75 36.9391 25.75 37.3313C25.75 37.7236 25.9094 38.0985 26.1914 38.3741C26.4731 38.6495 26.854 38.8032 27.25 38.8032C27.646 38.8032 28.0269 38.6495 28.3086 38.3741C28.5906 38.0985 28.75 37.7236 28.75 37.3313C28.75 36.9391 28.5906 36.5641 28.3086 36.2886C28.0269 36.0132 27.646 35.8594 27.25 35.8594Z" fill="#20B466" stroke="#DDDDDD" stroke-width="0.5"/>
</g>
</g>
<path d="M-1502 -397H1882V-399H-1502V-397ZM1883 -396V988H1885V-396H1883ZM1882 989H-1502V991H1882V989ZM-1503 988V-396H-1505V988H-1503ZM-1502 989C-1502.55 989 -1503 988.552 -1503 988H-1505C-1505 989.657 -1503.66 991 -1502 991V989ZM1883 988C1883 988.552 1882.55 989 1882 989V991C1883.66 991 1885 989.657 1885 988H1883ZM1882 -397C1882.55 -397 1883 -396.552 1883 -396H1885C1885 -397.657 1883.66 -399 1882 -399V-397ZM-1502 -399C-1503.66 -399 -1505 -397.657 -1505 -396H-1503C-1503 -396.552 -1502.55 -397 -1502 -397V-399Z" fill="white" fill-opacity="0.1"/>
</g>
<defs>
<clipPath id="clip0_613_330">
<rect width="428" height="926" fill="white" transform="translate(-347 -117)"/>
</clipPath>
</defs>
</svg>
