<svg width="27" height="25" viewBox="0 0 27 25" fill="none" xmlns="http://www.w3.org/2000/svg">
<g id="Group 526">
<rect id="Rectangle 287" y="1.22998" width="16" height="22" rx="4" fill="#00A950" fill-opacity="0.5"/>
<path id="Vector" d="M19.6291 8.28221L19.639 8.2837M8.09444 4.29609C8.22622 3.42192 8.66514 2.63065 9.31464 2.09638C9.96415 1.5621 10.771 1.32858 11.5578 1.44718L23.4237 3.2359C24.2105 3.3545 24.9127 3.81551 25.3758 4.51751C25.839 5.21951 26.0251 6.105 25.8933 6.97918L23.9059 20.1636C23.7741 21.0377 23.3352 21.829 22.6857 22.3633C22.0362 22.8975 21.2293 23.1311 20.4425 23.0125L8.57659 21.2237C7.78983 21.1051 7.08764 20.6441 6.6245 19.9421C6.16136 19.2401 5.9752 18.3546 6.10697 17.4805L8.09444 4.29609Z" stroke="#00A950" stroke-width="2" stroke-linecap="round" stroke-linejoin="round"/>
<path id="Vector_2" d="M6.43816 15.2831L12.2104 10.5349C13.2759 9.69205 14.4072 9.86258 15.1769 10.982L19.2929 17.2208" stroke="#00A950" stroke-width="2" stroke-linecap="round" stroke-linejoin="round"/>
<path id="Vector_3" d="M17.6463 14.7252L18.8008 13.7755C19.8663 12.9327 20.9975 13.1033 21.7672 14.2227L24.2369 17.966" stroke="#00A950" stroke-width="2" stroke-linecap="round" stroke-linejoin="round"/>
</g>
</svg>
