<svg width="21" height="21" viewBox="0 0 21 21" fill="none" xmlns="http://www.w3.org/2000/svg">
<g id="Group">
<path id="Vector" d="M1 10.5C1 15.7468 5.25315 20 10.5 20C15.7468 20 20 15.7468 20 10.5C20 5.25315 15.7468 1 10.5 1C5.25315 1 1 5.25315 1 10.5Z" stroke="#00A950" stroke-width="1.2" stroke-linecap="round" stroke-linejoin="round"/>
<path id="Vector_2" d="M11.45 1.04736C11.45 1.04736 14.3 4.79986 14.3 10.4999C14.3 16.1999 11.45 19.9524 11.45 19.9524M9.55001 19.9524C9.55001 19.9524 6.70001 16.1999 6.70001 10.4999C6.70001 4.79986 9.55001 1.04736 9.55001 1.04736M1.59851 13.8249H19.4015M1.59851 7.17486H19.4015" stroke="#00A950" stroke-width="1.2" stroke-linecap="round" stroke-linejoin="round"/>
</g>
</svg>
