<svg width="21" height="24" viewBox="0 0 21 24" fill="none" xmlns="http://www.w3.org/2000/svg">
<g id="Group 665">
<path id="Vector" d="M1 2.09859V21.8732C0.999912 22.1673 1.11044 22.4497 1.30799 22.6602C1.50554 22.8707 1.77447 22.9926 2.05736 23H3.34789V1H2.05736C1.7791 1.00714 1.51413 1.12518 1.3173 1.32968C1.12048 1.53418 1.00687 1.80948 1 2.09859ZM8.87328 15.8056C8.14617 15.8056 7.43538 15.5816 6.8308 15.1619C6.22623 14.7422 5.75502 14.1456 5.47676 13.4477C5.19851 12.7497 5.1257 11.9817 5.26756 11.2407C5.40941 10.4998 5.75955 9.81916 6.2737 9.28497C6.78785 8.75077 7.44292 8.38698 8.15606 8.23959C8.86921 8.09221 9.6084 8.16785 10.2802 8.45696C10.9519 8.74606 11.5261 9.23564 11.9301 9.86379C12.334 10.4919 12.5497 11.2304 12.5497 11.9859C12.5482 12.9985 12.1604 13.9692 11.4713 14.6852C10.7821 15.4012 9.84788 15.8041 8.87328 15.8056Z" stroke="#00A950" stroke-linecap="round" stroke-linejoin="round"/>
<path id="Vector_2" d="M10.5 10.1607L8.33107 11.2367C8.25392 11.2773 8.19123 11.3425 8.15214 11.4226L7.12188 13.6762C7.11645 13.6884 7.11341 13.7015 7.11292 13.715C7.11244 13.7284 7.11453 13.7418 7.11907 13.7544C7.12361 13.7669 7.13051 13.7785 7.13937 13.7883C7.14823 13.798 7.15888 13.8059 7.17069 13.8114C7.18261 13.817 7.19555 13.8199 7.20864 13.8199C7.22173 13.8199 7.23467 13.817 7.2466 13.8114L9.41555 12.7353C9.50231 12.6901 9.57268 12.617 9.61618 12.5269L10.6518 10.2733C10.6591 10.2479 10.6571 10.2206 10.646 10.1966C10.635 10.1727 10.6158 10.1538 10.5922 10.1438C10.5768 10.1378 10.5601 10.1362 10.5439 10.1392C10.5277 10.1421 10.5125 10.1496 10.5 10.1607Z" stroke="#00A950" stroke-linecap="round" stroke-linejoin="round"/>
<path id="Vector_3" d="M17.9178 14.8028H18.536C18.9238 14.8013 19.2954 14.6406 19.5696 14.3556C19.8439 14.0707 19.9986 13.6847 20 13.2817V10.6789C19.9957 10.2779 19.8398 9.8947 19.5658 9.61218C19.2919 9.32966 18.9219 9.17047 18.536 9.16901H17.9178V2.09859C17.9107 1.80467 17.7934 1.52525 17.5907 1.32C17.3881 1.11475 17.1163 0.999908 16.8333 1H3.3479V22.9718H16.8604C17.1481 22.9718 17.4239 22.8531 17.6273 22.6418C17.8307 22.4305 17.9449 22.1439 17.9449 21.8451L17.9178 14.8028Z" stroke="#00A950" stroke-linecap="round" stroke-linejoin="round"/>
<path id="Vector_4" d="M15.532 13.6762C15.1006 13.6762 14.6868 13.4981 14.3817 13.1811C14.0767 12.8642 13.9053 12.4343 13.9053 11.986C13.9053 11.5378 14.0767 11.1079 14.3817 10.7909C14.6868 10.474 15.1006 10.2959 15.532 10.2959H17.9178V13.6762H15.532Z" stroke="#00A950" stroke-linecap="round" stroke-linejoin="round"/>
</g>
</svg>
