<svg width="19" height="21" viewBox="0 0 19 21" fill="none" xmlns="http://www.w3.org/2000/svg">
<path id="Vector" d="M9.49452 6.97493e-06C11.5539 -0.00274737 13.5335 0.810348 15.0138 2.26702C16.4941 3.7237 17.3589 5.70951 17.4248 7.80373L17.4291 8.07282V12.4827L18.889 15.8798C18.9771 16.0845 19.0137 16.3083 18.9954 16.5309C18.9771 16.7536 18.9046 16.9681 18.7844 17.1551C18.6641 17.3421 18.5 17.4956 18.3067 17.6018C18.1135 17.7081 17.8973 17.7636 17.6777 17.7634L12.6683 17.7667C12.6694 18.6073 12.3482 19.4152 11.7731 20.0188C11.1979 20.6223 10.4141 20.9738 9.58819 20.9986C8.7623 21.0234 7.95946 20.7195 7.3503 20.1516C6.74113 19.5837 6.37366 18.7964 6.32599 17.9572L6.3207 17.7634H1.32193C1.10273 17.7632 0.887036 17.7075 0.694204 17.6015C0.501372 17.4954 0.337444 17.3423 0.217143 17.1559C0.0968411 16.9695 0.0239328 16.7556 0.00496491 16.5334C-0.014003 16.3112 0.0215636 16.0877 0.108471 15.883L1.55997 12.4838V8.07282C1.55997 3.60048 5.10618 6.97493e-06 9.49452 6.97493e-06ZM11.0814 17.7645L7.90761 17.7667C7.90754 18.1814 8.06433 18.5802 8.34548 18.8805C8.62664 19.1808 9.01058 19.3595 9.41773 19.3796C9.82488 19.3997 10.224 19.2596 10.5324 18.9883C10.8407 18.7171 11.0347 18.3355 11.074 17.9227L11.0814 17.7645ZM9.49452 1.61457C5.98216 1.61457 3.14688 4.4928 3.14688 8.07282V12.8196L1.725 16.1499H17.2736L15.8422 12.8207V8.08682L15.839 7.84463C15.784 6.17113 15.0911 4.58508 13.9069 3.42226C12.7228 2.25943 11.1403 1.61112 9.49452 1.61457Z" fill="#0FA958"/>
</svg>
