<svg width="14" height="16" viewBox="0 0 14 16" fill="none" xmlns="http://www.w3.org/2000/svg">
<path id="Vector" d="M11.9496 1.94087C9.21603 -0.646956 4.78397 -0.646956 2.05036 1.94087C1.40133 2.55109 0.8856 3.28003 0.533493 4.08482C0.181385 4.88961 0 5.75402 0 6.62725C0 7.50047 0.181385 8.36488 0.533493 9.16967C0.8856 9.97446 1.40133 10.7034 2.05036 11.3136L6.99956 16L11.9496 11.3136C12.5987 10.7034 13.1144 9.97446 13.4665 9.16967C13.8186 8.36488 14 7.50047 14 6.62725C14 5.75402 13.8186 4.88961 13.4665 4.08482C13.1144 3.28003 12.5987 2.55109 11.9496 1.94087ZM6.99956 8.84201C6.41504 8.84201 5.86639 8.62306 5.4525 8.22558C5.04276 7.83042 4.81265 7.29497 4.81265 6.73672C4.81265 6.17847 5.04276 5.64302 5.4525 5.24786C5.86552 4.85038 6.41504 4.63143 6.99956 4.63143C7.58409 4.63143 8.13361 4.85038 8.54663 5.24786C8.95636 5.64302 9.18648 6.17847 9.18648 6.73672C9.18648 7.29497 8.95636 7.83042 8.54663 8.22558C8.13361 8.62306 7.58409 8.84201 6.99956 8.84201Z" fill="#E70000"/>
</svg>
