<svg width="19" height="22" viewBox="0 0 19 22" fill="none" xmlns="http://www.w3.org/2000/svg">
<g id="Group 647">
<path id="Vector" d="M18.5 10.2131V10.2138C18.4997 10.8104 18.3821 11.3993 18.156 11.9416C17.9298 12.4838 17.6008 12.9659 17.1924 13.3574L17.0385 13.505V13.7183V20.4004L14.8413 19.2877L14.6154 19.1733L14.3895 19.2877L12.1923 20.4004V13.7183V13.5055L12.0389 13.3579C11.5538 12.8915 11.182 12.2988 10.9607 11.6323C10.7393 10.9657 10.6763 10.249 10.7782 9.5482C10.8801 8.84746 11.1432 8.188 11.5407 7.62948C11.9381 7.07112 12.4563 6.63246 13.0456 6.34989C13.6346 6.06745 14.2778 5.94886 14.9173 6.00299C15.557 6.05714 16.1765 6.28267 16.7194 6.66231C17.2626 7.04214 17.7125 7.56481 18.0249 8.18548C18.3374 8.80627 18.5013 9.50345 18.5 10.2131ZM15.851 19.1835L16.5769 19.5511V18.7375V14.6533V13.9228L15.8959 14.1872C15.0679 14.5088 14.1629 14.5088 13.3348 14.1872L12.6538 13.9228V14.6533V18.7375V19.5511L13.3797 19.1835L14.6154 18.5578L15.851 19.1835ZM14.6154 13.8569L14.6161 13.8569C15.5355 13.8557 16.409 13.4621 17.0474 12.7758C17.6846 12.0906 18.0374 11.169 18.0385 10.2146V10.214C18.0385 9.50129 17.842 8.8019 17.4705 8.20405C17.0988 7.60592 16.5668 7.13397 15.9374 6.85368C15.3075 6.57314 14.612 6.49904 13.9405 6.64264C13.2695 6.78616 12.6584 7.13933 12.1823 7.65119C11.7066 8.16267 11.3863 8.81011 11.2568 9.50995C11.1274 10.2097 11.1935 10.9354 11.4482 11.5965C11.703 12.2578 12.1367 12.8288 12.6997 13.2333C13.2632 13.6382 13.9299 13.8569 14.6154 13.8569Z" fill="#0FA958" stroke="#00A950"/>
<path id="Vector_2" d="M3.42308 9.92857H2.92308H1.46207C1.21916 9.92883 0.978249 10.0324 0.794625 10.2298C0.609912 10.4284 0.500325 10.7049 0.5 11.0003V20.4283C0.500325 20.7236 0.609912 21.0002 0.794625 21.1988C0.978249 21.3962 1.21916 21.4997 1.46207 21.5H9V20.9286H1.46154H0.961538V20.4286V11V10.5H1.46154H7.53846V9.92857H4.38462H3.88462V9.42857L3.88462 4.71475C3.88462 4.71466 3.88462 4.71458 3.88462 4.71449V4.71429H4.38462C4.38389 3.93489 4.65253 3.183 5.1384 2.60459C5.62427 2.02618 6.2927 1.66251 7.01393 1.58418C7.73515 1.50585 8.45772 1.71845 9.04135 2.18071C9.57562 2.60387 9.95858 3.2086 10.1302 3.8938L3.42308 9.92857ZM3.42308 9.92857V9.42857L3.42308 4.71483C3.42308 4.71476 3.42308 4.71468 3.42308 4.71461C3.42435 3.58604 3.84222 2.5107 4.57492 1.72291C5.30633 0.936508 6.28986 0.501523 7.30745 0.500001C8.19231 0.502217 9.05477 0.831579 9.74921 1.4411C10.3282 1.94925 10.761 2.62687 10.9961 3.39306M3.42308 9.92857L10.9961 3.39306M10.9961 3.39306L10.5343 3.49439C10.31 2.82055 9.90189 2.22445 9.35179 1.78876L10.9961 3.39306Z" fill="#0FA958" stroke="#00A950"/>
</g>
</svg>
