<svg width="50" height="50" viewBox="0 0 50 50" fill="none" xmlns="http://www.w3.org/2000/svg">
<g id="Group 480">
<circle id="Ellipse 21" cx="25" cy="25" r="24.5" fill="#00A950" stroke="#00A950"/>
<path id="Vector" d="M37.9854 17.5328C35.1863 14.7331 30.0663 15.314 26.5511 18.8317C24.491 20.8922 23.4468 23.501 23.4909 25.8739C23.325 28.4152 22.8697 30.8678 21.6677 32.2898L21.2521 31.8736L20.6109 32.5146L20.7886 32.6925L16.4774 37.0053L16.2996 36.8274L15.6592 37.4681L18.001 39.812L18.6422 39.1713L18.4644 38.9939L22.7761 34.681L22.9539 34.8585L23.5939 34.2178L23.2355 33.8572C24.6561 32.6557 27.1045 32.2006 29.6425 32.0334C32.0153 32.0796 34.6256 31.0354 36.6874 28.9729C40.205 25.4552 40.7854 20.3333 37.9854 17.5328ZM38.4685 22.0999L37.8808 21.5128L38.3369 21.0574C38.4109 21.3959 38.4542 21.7442 38.4685 22.0999ZM38.1469 20.3951L37.4554 21.0872L36.1582 19.7892L37.1873 18.7593C37.6087 19.2382 37.9345 19.7934 38.1469 20.3951ZM26.2095 26.2905L27.8369 24.6617L29.1353 25.9601L27.5071 27.5881L26.2095 26.2905ZM27.082 28.0158L26.0509 29.046C25.629 28.5671 25.3032 28.0113 25.0913 27.4091L25.7832 26.7177L27.082 28.0158ZM32.3794 20.1187L34.006 18.4907L35.3036 19.7896L33.6758 21.418L32.3794 20.1187ZM34.9734 23.5685L33.3448 25.2005L32.0456 23.9029L33.6758 22.2712L34.9734 23.5685ZM33.2495 21.8444L31.6193 23.4752L30.3217 22.1772L31.952 20.5459L33.2495 21.8444ZM31.1926 23.9029L29.562 25.5337L28.2636 24.2349L29.8946 22.604L31.1926 23.9029ZM29.8946 21.7504L28.6003 20.4552L30.2306 18.8239L31.5241 20.1187L29.8946 21.7504ZM29.4684 22.1776L27.8369 23.808L26.543 22.5128L28.1724 20.8812L29.4684 22.1776ZM29.562 26.3878L30.8591 27.685L29.2317 29.3138L27.935 28.015L29.562 26.3878ZM29.9899 25.9601L31.6193 24.3293L32.9169 25.6274L31.2854 27.2586L29.9899 25.9601ZM33.3448 26.0538L34.637 27.3494L33.0064 28.9802L31.7112 27.685L33.3448 26.0538ZM33.7702 25.6269L35.4005 23.9961L36.6956 25.2909L35.0653 26.9221L33.7702 25.6269ZM34.1029 21.8448L35.7311 20.216L37.0283 21.5132L35.4021 23.142L34.1029 21.8448ZM36.761 18.3325L35.7311 19.3627L34.4323 18.0639L35.1234 17.3725C35.7259 17.5841 36.282 17.9101 36.761 18.3325ZM34.4617 17.1812L34.0064 17.6366L33.42 17.05C33.7755 17.0647 34.1237 17.1076 34.4617 17.1812ZM32.5854 17.0688L33.5794 18.0635L31.9524 19.6919L30.6568 18.3971L31.8915 17.162C32.124 17.1191 32.3557 17.0884 32.5854 17.0688ZM30.723 17.4772L30.231 17.9702L30.0213 17.7605C30.2508 17.6555 30.485 17.561 30.723 17.4772ZM29.4537 18.0459L29.8035 18.3963L28.1724 20.0279L27.5671 19.4208C28.1356 18.8849 28.7694 18.4229 29.4537 18.0459ZM27.1401 19.8484L27.7466 20.4552L26.1159 22.086L25.7656 21.7352C26.1426 21.051 26.6044 20.417 27.1401 19.8484ZM25.48 22.3035L25.6892 22.5132L25.1963 23.0063C25.2789 22.77 25.3729 22.5361 25.48 22.3035ZM24.8812 24.1739L26.1159 22.9393L27.4106 24.2344L25.7832 25.862L24.7877 24.8665C24.8077 24.6376 24.8383 24.4062 24.8812 24.1739ZM25.3557 26.2901L24.9005 26.7455C24.8263 26.4027 24.7825 26.0539 24.7697 25.7034L25.3557 26.2901ZM23.609 31.9161C23.1619 31.4688 23.7439 29.7353 24.1468 28.7047C24.4264 29.2766 24.7881 29.8081 25.2511 30.2713C25.7146 30.735 26.2463 31.0972 26.8192 31.3772C25.7889 31.7799 24.0553 32.3625 23.609 31.9161ZM26.4776 29.4733L27.5075 28.4426L28.8051 29.7411L28.1123 30.4324C27.5111 30.2203 26.9561 29.8947 26.4776 29.4733ZM28.7756 30.6229L29.2313 30.1671L29.8182 30.7546C29.4675 30.7415 29.1186 30.6974 28.7756 30.6229ZM30.6532 30.7358L29.6576 29.7398L31.285 28.1119L32.5805 29.4066L31.3455 30.643C31.1164 30.6852 30.8853 30.7162 30.6532 30.7358ZM32.5135 30.3278L33.006 29.8351L33.216 30.0444C32.9835 30.1503 32.7493 30.2448 32.5135 30.3278ZM33.7853 29.7574L33.4351 29.4066L35.0653 27.7762L35.6714 28.3825C35.1032 28.9186 34.4695 29.3806 33.7853 29.7574ZM36.0981 27.9557L35.4916 27.3494L37.1219 25.7181L37.4729 26.0685C37.0957 26.7528 36.6338 27.3869 36.0981 27.9557ZM37.7582 25.5006L37.5485 25.2913L38.041 24.7986C37.9576 25.0368 37.8632 25.2711 37.7582 25.5006ZM38.3565 23.629L37.1219 24.8645L35.828 23.5685L37.4554 21.9405L38.4501 22.9364C38.4302 23.1686 38.399 23.3998 38.3565 23.629ZM19.7318 24.2761C20.9325 24.2761 22.0617 23.8084 22.911 22.9593C23.7602 22.1097 24.2273 20.9801 24.2273 19.7789C24.2273 18.5778 23.759 17.4482 22.9097 16.599C22.0609 15.7499 20.9321 15.2817 19.7314 15.2817C18.5306 15.2817 17.4023 15.7494 16.5534 16.599C15.7042 17.4482 15.2362 18.5778 15.2362 19.7789C15.2362 20.9801 15.7037 22.1101 16.553 22.9593C16.9695 23.3781 17.4649 23.7101 18.0106 23.9362C18.5562 24.1622 19.1412 24.2778 19.7318 24.2761ZM22.3805 17.1293C23.0573 17.8041 23.4485 18.7137 23.4729 19.6694C22.523 19.6289 21.623 19.2328 20.9513 18.5598C20.2781 17.8879 19.8822 16.9873 19.8421 16.0369C20.7971 16.0614 21.706 16.4525 22.3805 17.1293ZM17.0831 17.1289C17.6992 16.5095 18.5136 16.1269 19.3836 16.0483C19.4262 17.1165 19.8695 18.1295 20.6252 18.8854C21.381 19.6414 22.3936 20.0847 23.4615 20.1273C23.3832 20.9978 23.0006 21.8128 22.3809 22.429C21.7646 23.0484 20.95 23.431 20.08 23.5096C20.0375 22.4415 19.5941 21.4287 18.8384 20.6731C18.0831 19.9169 17.0706 19.4734 16.0029 19.431C16.0808 18.5603 16.4633 17.7451 17.0831 17.1289ZM18.5127 20.9981C19.1854 21.6703 19.5813 22.5707 19.6218 23.521C18.6667 23.4968 17.7574 23.1057 17.0827 22.429C16.4059 21.7542 16.015 20.8445 15.9911 19.8889C16.9408 19.9295 17.8408 20.3253 18.5127 20.9981Z" fill="white"/>
</g>
</svg>
