<svg width="36" height="40" viewBox="0 0 36 40" fill="none" xmlns="http://www.w3.org/2000/svg">
<g id="Group 729">
<g id="Group 570">
<path id="Vector" d="M35.4201 12.8847V27.4547C35.425 28.2642 35.2157 29.0605 34.8136 29.763C34.4114 30.4655 33.8306 31.0491 33.1301 31.4547L30.6601 32.8747L30.0401 33.2347L29.7101 33.4247L29.4001 33.6047L29.0801 33.7947L28.7501 33.9847L28.4201 34.1647L28.1001 34.3547L27.4401 34.7347L27.1001 34.9347L20.5101 38.7347C19.8105 39.1375 19.0174 39.3495 18.2101 39.3495C17.4028 39.3495 16.6097 39.1375 15.9101 38.7347L3.29008 31.4347C2.58957 31.0291 2.00878 30.4455 1.6066 29.743C1.20443 29.0405 0.995184 28.2442 1.00008 27.4347V12.8847C0.995184 12.0753 1.20443 11.2789 1.6066 10.5765C2.00878 9.87397 2.58957 9.29034 3.29008 8.88474L15.9101 1.61474C16.6097 1.21198 17.4028 1 18.2101 1C19.0174 1 19.8105 1.21198 20.5101 1.61474L33.1301 8.90474C33.8276 9.30865 34.4065 9.88913 34.8085 10.5878C35.2105 11.2865 35.4215 12.0787 35.4201 12.8847Z" stroke="#00A950" stroke-width="0.75" stroke-miterlimit="10"/>
<path id="Vector_2" d="M13.4101 28.6047L15.8401 29.7247H15.8501L27.1001 34.9147" stroke="#00A950" stroke-width="0.25" stroke-miterlimit="10"/>
<path id="Vector_3" d="M27.4401 34.7148L19.0801 30.0848L17.0201 28.9448L10.2601 25.1948L9.75006 24.9148" stroke="#00A950" stroke-width="0.25" stroke-miterlimit="10"/>
<path id="Vector_4" d="M27.7701 34.5248L20.6901 29.8348L17.3801 27.6448L11.3601 23.6648" stroke="#00A950" stroke-width="0.25" stroke-miterlimit="10"/>
<path id="Vector_5" d="M28.1001 34.3348L21.9101 29.4448L17.9401 26.3148L12.9801 22.4048" stroke="#00A950" stroke-width="0.25" stroke-miterlimit="10"/>
<path id="Vector_6" d="M28.4201 34.1448L22.9201 28.9748L18.7201 25.0248L14.5901 21.1448" stroke="#00A950" stroke-width="0.25" stroke-miterlimit="10"/>
<path id="Vector_7" d="M28.7501 33.9648L23.8101 28.4148L19.7101 23.8048L16.2101 19.8848" stroke="#00A950" stroke-width="0.25" stroke-miterlimit="10"/>
<path id="Vector_8" d="M29.0801 33.7748L24.6201 27.7748L20.8701 22.7448L17.8201 18.6348" stroke="#00A950" stroke-width="0.25" stroke-miterlimit="10"/>
<path id="Vector_9" d="M29.4001 33.5848L25.3701 27.0448L22.1801 21.8548L19.4301 17.3748" stroke="#00A950" stroke-width="0.25" stroke-miterlimit="10"/>
<path id="Vector_10" d="M29.7101 33.4047L26.0801 26.1547L23.5801 21.1747L21.0501 16.1147" stroke="#00A950" stroke-width="0.25" stroke-miterlimit="10"/>
<path id="Vector_11" d="M30.0401 33.2147L26.7501 25.0447L25.0201 20.7147L22.6701 14.8547" stroke="#00A950" stroke-width="0.25" stroke-miterlimit="10"/>
<path id="Vector_12" d="M30.3501 33.0347L27.3801 23.5147L26.4301 20.4847L24.2801 13.6047" stroke="#00A950" stroke-width="0.25" stroke-miterlimit="10"/>
<path id="Vector_13" d="M26.9701 16.9749L27.7701 20.4149L30.6601 32.8149" stroke="#00A950" stroke-width="0.25" stroke-miterlimit="10"/>
<path id="Vector_14" d="M18.4701 30.1049C23.6119 30.1049 27.7801 25.9366 27.7801 20.7949C27.7801 15.6531 23.6119 11.4849 18.4701 11.4849C13.3283 11.4849 9.1601 15.6531 9.1601 20.7949C9.1601 25.9366 13.3283 30.1049 18.4701 30.1049Z" fill="#66BB46" stroke="white" stroke-miterlimit="10"/>
<path id="Vector_15" d="M9.26007 22.2048H9.63007C12.4415 22.2053 15.1409 21.1023 17.1475 19.1331C19.1541 17.1639 20.3077 14.4858 20.3601 11.6748" stroke="white" stroke-width="0.75" stroke-miterlimit="10"/>
<path id="Vector_16" d="M16.8501 29.9748C17.1453 27.3495 18.3978 24.925 20.3681 23.165C22.3383 21.4051 24.8882 20.433 27.5301 20.4348H27.7801" stroke="white" stroke-width="0.75" stroke-miterlimit="10"/>
</g>
</g>
</svg>
